:FULLY-SPECIFIED
:FORCE-ALL-JOINTS-BE-3DOF
:DEGREES
781
root 1.63116 16.373 18.6468 -10.9531 74.5866 -17.0494
lfemur -36.1326 10.7337 -13.2783
ltibia 50.6608 -0 0
lfoot -22.5209 18.9374 -0.0242082
ltoes 16.2463 -0 0
rfemur -15.2652 -22.1043 21.3843
rtibia 51.3913 -0 0
rfoot -18.4018 -30.8235 0.0353117
rtoes -25.1226 0 0
lowerback 1.03349 4.65588 -0.513325
upperback -0.854045 6.19794 -3.64926
thorax -1.10436 3.10906 -3.57006
lowerneck -5.44433 -6.47833 -0.530931
upperneck -2.0165 -8.55368 4.8665
head 0.53116 -4.20158 1.40565
lclavicle -0 0 0
lhumerus -55.9658 -11.5871 94.8477
lradius 70.6518 -0 0
lwrist 13.4059 0 0
lhand -21.5808 -4.65659 -0.0211005
lfingers 0 -0 0
lthumb 4.81347 25.2628 -0.0208463
rclavicle -0 0 0
rhumerus -31.3576 48.1847 -112.911
rradius 79.7507 -0 0
rwrist 5.67478 0 0
rhand -23.5362 -20.2746 0.00297821
rfingers 0 -0 0
rthumb 2.92532 -50.2336 0.00291507
782
root 1.60293 16.407 18.7305 -7.82741 71.5595 -13.7779
lfemur -35.265 8.17974 -12.2123
ltibia 50.226 -0 0
lfoot -22.2955 17.9112 -0.0242082
ltoes 14.7475 -0 0
rfemur -15.1642 -20.9834 21.0886
rtibia 50.8373 -0 0
rfoot -18.1715 -29.3587 0.0353117
rtoes -25.7461 0 0
lowerback 1.01089 4.64097 -0.242589
upperback -0.777043 6.1821 -3.52993
thorax -0.998137 3.09895 -3.58952
lowerneck -5.50399 -6.31789 -0.386224
upperneck -1.74138 -8.36417 4.61475
head 0.602751 -4.10831 1.30176
lclavicle -0 0 0
lhumerus -56.0654 -11.5628 94.9133
lradius 70.6299 -0 0
lwrist 13.9753 0 0
lhand -22.0538 -4.2306 -0.0211005
lfingers 0 -0 0
lthumb 4.35669 25.6986 -0.0208463
rclavicle -0 0 0
rhumerus -31.9608 48.0668 -113.439
rradius 79.6045 -0 0
rwrist 5.41476 0 0
rhand -23.7058 -20.4422 0.00297821
rfingers 0 -0 0
rthumb 2.76143 -50.4034 0.00291507
783
root 1.5747 16.441 18.8142 -5.60273 68.4917 -11.4062
lfemur -34.4499 5.61059 -11.1911
ltibia 49.7912 -0 0
lfoot -22.0702 16.885 -0.0201724
ltoes 13.2488 -0 0
rfemur -15.0701 -19.8621 20.7971
rtibia 50.2833 -0 0
rfoot -17.9412 -27.8941 0.0294231
rtoes -26.3695 0 0
lowerback 0.988225 4.62617 0.0281462
upperback -0.700077 6.16609 -3.41063
thorax -0.891911 3.08888 -3.609
lowerneck -5.56321 -6.15731 -0.241729
upperneck -1.46723 -8.17348 4.36404
head 0.674164 -4.01491 1.198
lclavicle -0 0 0
lhumerus -56.1649 -11.5384 94.9789
lradius 70.608 -0 0
lwrist 14.5446 0 0
lhand -22.5269 -3.80461 -0.0175834
lfingers 0 -0 0
lthumb 3.89992 26.1345 -0.0173716
rclavicle -0 0 0
rhumerus -32.5608 47.9453 -113.963
rradius 79.4582 -0 0
rwrist 5.15473 0 0
rhand -23.8755 -20.6098 0.00248184
rfingers 0 -0 0
rthumb 2.59755 -50.5733 0.00242922
784
root 1.54647 16.4749 18.898 -3.94872 65.3986 -9.60369
lfemur -33.6835 3.0277 -10.2099
ltibia 49.3564 -0 0
lfoot -21.845 15.8588 -0.0121021
ltoes 11.75 -0 0
rfemur -14.9827 -18.7403 20.5095
rtibia 49.7293 -0 0
rfoot -17.7111 -26.4294 0.0176499
rtoes -26.993 0 0
lowerback 0.965485 4.61148 0.298882
upperback -0.623148 6.14993 -3.29135
thorax -0.785682 3.07884 -3.6285
lowerneck -5.62201 -5.99658 -0.0974443
upperneck -1.19406 -7.9816 4.11438
head 0.745399 -3.92138 1.09438
lclavicle -0 0 0
lhumerus -56.2644 -11.5139 95.0444
lradius 70.5862 -0 0
lwrist 15.1139 0 0
lhand -22.9999 -3.37867 -0.0105496
lfingers 0 -0 0
lthumb 3.44319 26.5703 -0.0104225
rclavicle -0 0 0
rhumerus -33.1578 47.8201 -114.484
rradius 79.312 -0 0
rwrist 4.89471 0 0
rhand -24.0452 -20.7774 0.00148909
rfingers 0 -0 0
rthumb 2.43367 -50.7431 0.00145752
